solid OpenSCAD_Model
  facet normal -1 0 0
    outer loop
      vertex 1 -12.125 0
      vertex 1 -8.125 5
      vertex 1 -8.125 0
    endloop
  endfacet
  facet normal -1 -0 0
    outer loop
      vertex 1 -8.125 5
      vertex 1 -12.125 0
      vertex 1 -12.125 5
    endloop
  endfacet
  facet normal -1 0 0
    outer loop
      vertex 1 8.125 0
      vertex 1 12.125 5
      vertex 1 12.125 0
    endloop
  endfacet
  facet normal -1 -0 0
    outer loop
      vertex 1 12.125 5
      vertex 1 8.125 0
      vertex 1 8.125 5
    endloop
  endfacet
  facet normal 0 0 1
    outer loop
      vertex 3 -8.125 5
      vertex 1 -8.125 5
      vertex 3 -10.125 5
    endloop
  endfacet
  facet normal 0 0 1
    outer loop
      vertex 12.125 12.125 5
      vertex 10.125 10.125 5
      vertex 12.125 -12.125 5
    endloop
  endfacet
  facet normal 0 0 1
    outer loop
      vertex 12.125 12.125 5
      vertex 3 10.125 5
      vertex 10.125 10.125 5
    endloop
  endfacet
  facet normal -0 0 1
    outer loop
      vertex 1 12.125 5
      vertex 3 10.125 5
      vertex 12.125 12.125 5
    endloop
  endfacet
  facet normal 0 0 1
    outer loop
      vertex 1 8.125 5
      vertex 3 10.125 5
      vertex 1 12.125 5
    endloop
  endfacet
  facet normal 0 0 1
    outer loop
      vertex 3 10.125 5
      vertex 1 8.125 5
      vertex 3 8.125 5
    endloop
  endfacet
  facet normal -0 0 1
    outer loop
      vertex 10.125 -10.125 5
      vertex 12.125 -12.125 5
      vertex 10.125 10.125 5
    endloop
  endfacet
  facet normal -0 0 1
    outer loop
      vertex 3 -10.125 5
      vertex 12.125 -12.125 5
      vertex 10.125 -10.125 5
    endloop
  endfacet
  facet normal 0 0 1
    outer loop
      vertex 3 -10.125 5
      vertex 1 -12.125 5
      vertex 12.125 -12.125 5
    endloop
  endfacet
  facet normal 0 0 1
    outer loop
      vertex 1 -12.125 5
      vertex 3 -10.125 5
      vertex 1 -8.125 5
    endloop
  endfacet
  facet normal 1 -0 0
    outer loop
      vertex 12.125 -12.125 5
      vertex 12.125 12.125 0
      vertex 12.125 12.125 5
    endloop
  endfacet
  facet normal 1 0 0
    outer loop
      vertex 12.125 12.125 0
      vertex 12.125 -12.125 5
      vertex 12.125 -12.125 0
    endloop
  endfacet
  facet normal 0 0 -1
    outer loop
      vertex 3 8.125 0
      vertex 1 8.125 0
      vertex 3 10.125 0
    endloop
  endfacet
  facet normal 0 0 -1
    outer loop
      vertex 12.125 -12.125 0
      vertex 10.125 -10.125 0
      vertex 12.125 12.125 0
    endloop
  endfacet
  facet normal 0 0 -1
    outer loop
      vertex 12.125 -12.125 0
      vertex 3 -10.125 0
      vertex 10.125 -10.125 0
    endloop
  endfacet
  facet normal 0 0 -1
    outer loop
      vertex 1 -12.125 0
      vertex 3 -10.125 0
      vertex 12.125 -12.125 0
    endloop
  endfacet
  facet normal 0 0 -1
    outer loop
      vertex 1 -8.125 0
      vertex 3 -10.125 0
      vertex 1 -12.125 0
    endloop
  endfacet
  facet normal 0 0 -1
    outer loop
      vertex 3 -10.125 0
      vertex 1 -8.125 0
      vertex 3 -8.125 0
    endloop
  endfacet
  facet normal 0 0 -1
    outer loop
      vertex 10.125 10.125 0
      vertex 12.125 12.125 0
      vertex 10.125 -10.125 0
    endloop
  endfacet
  facet normal 0 0 -1
    outer loop
      vertex 3 10.125 0
      vertex 12.125 12.125 0
      vertex 10.125 10.125 0
    endloop
  endfacet
  facet normal 0 0 -1
    outer loop
      vertex 3 10.125 0
      vertex 1 12.125 0
      vertex 12.125 12.125 0
    endloop
  endfacet
  facet normal 0 0 -1
    outer loop
      vertex 1 12.125 0
      vertex 3 10.125 0
      vertex 1 8.125 0
    endloop
  endfacet
  facet normal 0 -1 0
    outer loop
      vertex 1 -12.125 0
      vertex 12.125 -12.125 5
      vertex 1 -12.125 5
    endloop
  endfacet
  facet normal 0 -1 -0
    outer loop
      vertex 12.125 -12.125 5
      vertex 1 -12.125 0
      vertex 12.125 -12.125 0
    endloop
  endfacet
  facet normal 0 1 -0
    outer loop
      vertex 12.125 12.125 0
      vertex 1 12.125 5
      vertex 12.125 12.125 5
    endloop
  endfacet
  facet normal 0 1 0
    outer loop
      vertex 1 12.125 5
      vertex 12.125 12.125 0
      vertex 1 12.125 0
    endloop
  endfacet
  facet normal 1 -0 0
    outer loop
      vertex 3 8.125 5
      vertex 3 10.125 0
      vertex 3 10.125 5
    endloop
  endfacet
  facet normal 1 0 0
    outer loop
      vertex 3 10.125 0
      vertex 3 8.125 5
      vertex 3 8.125 0
    endloop
  endfacet
  facet normal 1 -0 0
    outer loop
      vertex 3 -10.125 5
      vertex 3 -8.125 0
      vertex 3 -8.125 5
    endloop
  endfacet
  facet normal 1 0 0
    outer loop
      vertex 3 -8.125 0
      vertex 3 -10.125 5
      vertex 3 -10.125 0
    endloop
  endfacet
  facet normal -1 0 0
    outer loop
      vertex 10.125 -10.125 0
      vertex 10.125 10.125 5
      vertex 10.125 10.125 0
    endloop
  endfacet
  facet normal -1 -0 0
    outer loop
      vertex 10.125 10.125 5
      vertex 10.125 -10.125 0
      vertex 10.125 -10.125 5
    endloop
  endfacet
  facet normal 0 1 -0
    outer loop
      vertex 10.125 -10.125 0
      vertex 3 -10.125 5
      vertex 10.125 -10.125 5
    endloop
  endfacet
  facet normal 0 1 0
    outer loop
      vertex 3 -10.125 5
      vertex 10.125 -10.125 0
      vertex 3 -10.125 0
    endloop
  endfacet
  facet normal 0 -1 0
    outer loop
      vertex 3 10.125 0
      vertex 10.125 10.125 5
      vertex 3 10.125 5
    endloop
  endfacet
  facet normal 0 -1 -0
    outer loop
      vertex 10.125 10.125 5
      vertex 3 10.125 0
      vertex 10.125 10.125 0
    endloop
  endfacet
  facet normal 0 -1 0
    outer loop
      vertex 1 8.125 0
      vertex 3 8.125 5
      vertex 1 8.125 5
    endloop
  endfacet
  facet normal 0 -1 -0
    outer loop
      vertex 3 8.125 5
      vertex 1 8.125 0
      vertex 3 8.125 0
    endloop
  endfacet
  facet normal 0 1 -0
    outer loop
      vertex 3 -8.125 0
      vertex 1 -8.125 5
      vertex 3 -8.125 5
    endloop
  endfacet
  facet normal 0 1 0
    outer loop
      vertex 1 -8.125 5
      vertex 3 -8.125 0
      vertex 1 -8.125 0
    endloop
  endfacet
endsolid OpenSCAD_Model
